<svg width="22" height="24" viewBox="0 0 22 24" fill="none" xmlns="http://www.w3.org/2000/svg">
<path d="M21.9981 19.4551L21.7472 19.2336C21.0351 18.5992 20.4119 17.8717 19.8943 17.0707C19.329 15.9653 18.9902 14.7581 18.8977 13.52V9.87333C18.9026 7.92864 18.1972 6.0491 16.914 4.58785C15.6308 3.12659 13.8582 2.18421 11.9292 1.93776V0.985487C11.9292 0.72412 11.8254 0.473457 11.6406 0.288643C11.4557 0.103828 11.2051 0 10.9437 0C10.6823 0 10.4317 0.103828 10.2469 0.288643C10.062 0.473457 9.95822 0.72412 9.95822 0.985487V1.95252C8.04649 2.21674 6.29529 3.16482 5.02896 4.62117C3.76263 6.07751 3.06699 7.94343 3.07088 9.87333V13.52C2.97843 14.7581 2.63961 15.9653 2.07432 17.0707C1.56562 17.8697 0.952413 18.5971 0.250986 19.2336L0 19.4551V21.5368H21.9981V19.4551Z" fill="#828282"/>
<path d="M9.05762 22.3119C9.12235 22.7798 9.35422 23.2085 9.71039 23.5188C10.0666 23.8291 10.523 24 10.9954 24C11.4678 24 11.9242 23.8291 12.2804 23.5188C12.6365 23.2085 12.8684 22.7798 12.9331 22.3119H9.05762Z" fill="#828282"/>
</svg>
