<svg width="22" height="24" viewBox="0 0 22 24" fill="none" xmlns="http://www.w3.org/2000/svg">
<path d="M18.7 14C19.5752 14 20.4146 14.3161 21.0335 14.8787C21.6523 15.4413 22 16.2044 22 17V17.715C22 21.292 17.369 24 11 24C4.631 24 0 21.433 0 17.715V17C0 16.2044 0.347678 15.4413 0.966548 14.8787C1.58542 14.3161 2.42479 14 3.3 14H18.7Z" fill="#828282"/>
<path d="M11 0C11.7879 -1.17411e-08 12.5681 0.155195 13.2961 0.456723C14.0241 0.758251 14.6855 1.20021 15.2426 1.75736C15.7998 2.31451 16.2417 2.97595 16.5433 3.7039C16.8448 4.43185 17 5.21207 17 6C17 6.78793 16.8448 7.56815 16.5433 8.2961C16.2417 9.02405 15.7998 9.68549 15.2426 10.2426C14.6855 10.7998 14.0241 11.2417 13.2961 11.5433C12.5681 11.8448 11.7879 12 11 12C9.4087 12 7.88258 11.3679 6.75736 10.2426C5.63214 9.11742 5 7.5913 5 6C5 4.4087 5.63214 2.88258 6.75736 1.75736C7.88258 0.632141 9.4087 2.37122e-08 11 0Z" fill="#828282"/>
</svg>
