<svg width="282" height="282" viewBox="0 0 282 282" fill="none" xmlns="http://www.w3.org/2000/svg">
<mask id="path-1-outside-1_1_518" maskUnits="userSpaceOnUse" x="0" y="0" width="282" height="282" fill="black">
<rect fill="white" width="282" height="282"/>
<path fill-rule="evenodd" clip-rule="evenodd" d="M9 1H62.6949V5H9C6.79086 5 5 6.79086 5 9V62.1017H1V9C1 4.58172 4.58172 1 9 1ZM1 219.898V273C1 277.418 4.58172 281 9 281H62.6949V277H9C6.79086 277 5 275.209 5 273V219.898H1ZM277 219.898V273C277 275.209 275.209 277 273 277H220.492V281H273C277.418 281 281 277.418 281 273V219.898H277ZM281 62.1017V9C281 4.58172 277.418 1 273 1H220.492V5H273C275.209 5 277 6.79086 277 9V62.1017H281Z"/>
</mask>
<path fill-rule="evenodd" clip-rule="evenodd" d="M9 1H62.6949V5H9C6.79086 5 5 6.79086 5 9V62.1017H1V9C1 4.58172 4.58172 1 9 1ZM1 219.898V273C1 277.418 4.58172 281 9 281H62.6949V277H9C6.79086 277 5 275.209 5 273V219.898H1ZM277 219.898V273C277 275.209 275.209 277 273 277H220.492V281H273C277.418 281 281 277.418 281 273V219.898H277ZM281 62.1017V9C281 4.58172 277.418 1 273 1H220.492V5H273C275.209 5 277 6.79086 277 9V62.1017H281Z" fill="#0079E9"/>
<path d="M62.6949 1H63.6949V0H62.6949V1ZM62.6949 5V6H63.6949V5H62.6949ZM5 62.1017V63.1017H6V62.1017H5ZM1 62.1017H0V63.1017H1V62.1017ZM1 219.898V218.898H0V219.898H1ZM62.6949 281V282H63.6949V281H62.6949ZM62.6949 277H63.6949V276H62.6949V277ZM5 219.898H6V218.898H5V219.898ZM277 219.898V218.898H276V219.898H277ZM220.492 277V276H219.492V277H220.492ZM220.492 281H219.492V282H220.492V281ZM281 219.898H282V218.898H281V219.898ZM281 62.1017V63.1017H282V62.1017H281ZM220.492 1V0H219.492V1H220.492ZM220.492 5H219.492V6H220.492V5ZM277 62.1017H276V63.1017H277V62.1017ZM62.6949 0H9V2H62.6949V0ZM63.6949 5V1H61.6949V5H63.6949ZM9 6H62.6949V4H9V6ZM6 9C6 7.34315 7.34315 6 9 6V4C6.23858 4 4 6.23858 4 9H6ZM6 62.1017V9H4V62.1017H6ZM1 63.1017H5V61.1017H1V63.1017ZM0 9V62.1017H2V9H0ZM9 0C4.02944 0 0 4.02944 0 9H2C2 5.13401 5.13401 2 9 2V0ZM0 219.898V273H2V219.898H0ZM0 273C0 277.971 4.02944 282 9 282V280C5.13401 280 2 276.866 2 273H0ZM9 282H62.6949V280H9V282ZM63.6949 281V277H61.6949V281H63.6949ZM62.6949 276H9V278H62.6949V276ZM9 276C7.34315 276 6 274.657 6 273H4C4 275.761 6.23858 278 9 278V276ZM6 273V219.898H4V273H6ZM5 218.898H1V220.898H5V218.898ZM278 273V219.898H276V273H278ZM273 278C275.761 278 278 275.761 278 273H276C276 274.657 274.657 276 273 276V278ZM220.492 278H273V276H220.492V278ZM221.492 281V277H219.492V281H221.492ZM273 280H220.492V282H273V280ZM280 273C280 276.866 276.866 280 273 280V282C277.971 282 282 277.971 282 273H280ZM280 219.898V273H282V219.898H280ZM281 218.898H277V220.898H281V218.898ZM280 9V62.1017H282V9H280ZM273 2C276.866 2 280 5.13401 280 9H282C282 4.02944 277.971 0 273 0V2ZM220.492 2H273V0H220.492V2ZM221.492 5V1H219.492V5H221.492ZM273 4H220.492V6H273V4ZM278 9C278 6.23858 275.761 4 273 4V6C274.657 6 276 7.34315 276 9H278ZM278 62.1017V9H276V62.1017H278ZM277 63.1017H281V61.1017H277V63.1017Z" fill="#0079E9" mask="url(#path-1-outside-1_1_518)"/>
</svg>
