<svg width="19" height="14" viewBox="0 0 19 14" fill="none" xmlns="http://www.w3.org/2000/svg">
<path d="M3.81872 13.3637C3.81872 13.5324 3.75168 13.6943 3.63235 13.8136C3.51302 13.933 3.35116 14 3.1824 14C3.01364 14 2.85179 13.933 2.73246 13.8136C2.61312 13.6943 2.54608 13.5324 2.54608 13.3637V2.17336L1.08764 3.63308C1.02848 3.69224 0.958239 3.73917 0.88094 3.77119C0.803641 3.80321 0.720792 3.81969 0.637123 3.81969C0.468148 3.81969 0.306093 3.75256 0.186609 3.63308C0.0671254 3.5136 0 3.35154 0 3.18257C0 3.01359 0.0671254 2.85154 0.186609 2.73205L2.73189 0.188046L2.7408 0.179137C2.86043 0.0629492 3.02103 -0.00140606 3.18779 2.33109e-05C3.35455 0.00145268 3.51402 0.0685512 3.63164 0.186773L6.17692 2.73205C6.23609 2.79113 6.28303 2.86128 6.31508 2.93851C6.34713 3.01573 6.36366 3.09851 6.36372 3.18212C6.36378 3.26573 6.34737 3.34853 6.31543 3.42579C6.28349 3.50306 6.23664 3.57328 6.17756 3.63244C6.11848 3.69161 6.04833 3.73855 5.97111 3.7706C5.89388 3.80265 5.8111 3.81918 5.7275 3.81924C5.64389 3.8193 5.56108 3.80289 5.48382 3.77095C5.40655 3.73901 5.33633 3.69216 5.27717 3.63308L3.81872 2.17336V13.3637ZM8.90928 1.27361C8.74052 1.27361 8.57867 1.20657 8.45933 1.08723C8.34 0.9679 8.27296 0.80605 8.27296 0.637287C8.27296 0.468525 8.34 0.306674 8.45933 0.187341C8.57867 0.0680083 8.74052 0.000967557 8.90928 0.000967557H10.1819C10.3507 0.000967557 10.5125 0.0680083 10.6319 0.187341C10.7512 0.306674 10.8182 0.468525 10.8182 0.637287C10.8182 0.80605 10.7512 0.9679 10.6319 1.08723C10.5125 1.20657 10.3507 1.27361 10.1819 1.27361H8.90928ZM8.90928 5.09153C8.74052 5.09153 8.57867 5.02448 8.45933 4.90515C8.34 4.78582 8.27296 4.62397 8.27296 4.45521C8.27296 4.28644 8.34 4.12459 8.45933 4.00526C8.57867 3.88593 8.74052 3.81889 8.90928 3.81889H12.7272C12.896 3.81889 13.0578 3.88593 13.1771 4.00526C13.2965 4.12459 13.3635 4.28644 13.3635 4.45521C13.3635 4.62397 13.2965 4.78582 13.1771 4.90515C13.0578 5.02448 12.896 5.09153 12.7272 5.09153H8.90928ZM8.90928 8.90944C8.74052 8.90944 8.57867 8.8424 8.45933 8.72307C8.34 8.60374 8.27296 8.44189 8.27296 8.27312C8.27296 8.10436 8.34 7.94251 8.45933 7.82318C8.57867 7.70384 8.74052 7.6368 8.90928 7.6368H15.2725C15.4412 7.6368 15.6031 7.70384 15.7224 7.82318C15.8418 7.94251 15.9088 8.10436 15.9088 8.27312C15.9088 8.44189 15.8418 8.60374 15.7224 8.72307C15.6031 8.8424 15.4412 8.90944 15.2725 8.90944H8.90928ZM8.27296 12.091C8.27296 12.2598 8.34 12.4217 8.45933 12.541C8.57867 12.6603 8.74052 12.7274 8.90928 12.7274H17.8178C17.9865 12.7274 18.1484 12.6603 18.2677 12.541C18.387 12.4217 18.4541 12.2598 18.4541 12.091C18.4541 11.9223 18.387 11.7604 18.2677 11.6411C18.1484 11.5218 17.9865 11.4547 17.8178 11.4547H8.90928C8.74052 11.4547 8.57867 11.5218 8.45933 11.6411C8.34 11.7604 8.27296 11.9223 8.27296 12.091Z" fill="#0079E9"/>
</svg>
