<svg width="24" height="24" viewBox="0 0 24 24" fill="none" xmlns="http://www.w3.org/2000/svg">
<path d="M9.17204 8.66667C9.84404 7.85334 10.8614 7.33334 12 7.33334C13.1387 7.33334 14.156 7.85334 14.828 8.66667C15.2705 9.20309 15.5512 9.85425 15.6376 10.5442C15.724 11.2341 15.6124 11.9344 15.3159 12.5634C15.0194 13.1923 14.5502 13.7239 13.9629 14.0963C13.3757 14.4687 12.6947 14.6664 11.9994 14.6664C11.304 14.6664 10.623 14.4687 10.0358 14.0963C9.44859 13.7239 8.97935 13.1923 8.68283 12.5634C8.3863 11.9344 8.27473 11.2341 8.36111 10.5442C8.44749 9.85425 8.72828 9.20309 9.1707 8.66667H9.17204Z" fill="#828282"/>
<path d="M17 11C17 10.1573 16.792 9.36266 16.424 8.66666H22C22.5304 8.66666 23.0391 8.87738 23.4142 9.25245C23.7892 9.62752 24 10.1362 24 10.6667V11.3333C24 13.4493 22.392 15.616 19.58 16.3787C19.291 15.8596 18.8685 15.4271 18.3563 15.1261C17.8441 14.8251 17.2607 14.6665 16.6666 14.6667H15.4C15.9053 14.1991 16.3084 13.6319 16.5838 13.0008C16.8591 12.3698 17.0009 11.6885 17 11Z" fill="#828282"/>
<path d="M16.6667 16C16.9295 15.9993 17.1899 16.0505 17.4329 16.1508C17.6758 16.2511 17.8966 16.3984 18.0824 16.5842C18.2683 16.7701 18.4156 16.9908 18.5158 17.2338C18.6161 17.4768 18.6674 17.7372 18.6667 18V18.6667C18.6667 21.2947 16.1867 24 12 24C7.81332 24 5.33332 21.2947 5.33332 18.6667V18C5.33262 17.7372 5.38387 17.4768 5.48413 17.2338C5.58439 16.9908 5.73168 16.7701 5.91754 16.5842C6.10339 16.3984 6.32415 16.2511 6.56712 16.1508C6.81009 16.0505 7.07048 15.9993 7.33332 16H16.6667Z" fill="#828282"/>
<path d="M0 11.3333C0 13.4493 1.608 15.616 4.42 16.3787C4.70897 15.8596 5.13144 15.4271 5.64365 15.1261C6.15587 14.8251 6.73922 14.6665 7.33333 14.6667H8.6C8.09462 14.1991 7.69156 13.6319 7.41619 13.0008C7.14082 12.3698 6.99911 11.6885 7 11C7 10.1573 7.208 9.36266 7.57733 8.66666H2C1.46957 8.66666 0.960859 8.87738 0.585786 9.25245C0.210714 9.62752 0 10.1362 0 10.6667V11.3333Z" fill="#828282"/>
<path d="M10.3333 3.66667C10.3333 2.69421 9.94703 1.76158 9.25939 1.07394C8.57176 0.386309 7.63913 0 6.66667 0C5.69421 0 4.76157 0.386309 4.07394 1.07394C3.38631 1.76158 3 2.69421 3 3.66667C3 4.63913 3.38631 5.57176 4.07394 6.25939C4.76157 6.94703 5.69421 7.33333 6.66667 7.33333C7.63913 7.33333 8.57176 6.94703 9.25939 6.25939C9.94703 5.57176 10.3333 4.63913 10.3333 3.66667Z" fill="#828282"/>
<path d="M21 3.66667C21 2.69421 20.6137 1.76158 19.9261 1.07394C19.2384 0.386309 18.3058 0 17.3334 0C16.3609 0 15.4283 0.386309 14.7406 1.07394C14.053 1.76158 13.6667 2.69421 13.6667 3.66667C13.6667 4.63913 14.053 5.57176 14.7406 6.25939C15.4283 6.94703 16.3609 7.33333 17.3334 7.33333C18.3058 7.33333 19.2384 6.94703 19.9261 6.25939C20.6137 5.57176 21 4.63913 21 3.66667Z" fill="#828282"/>
</svg>
