<svg width="122" height="24" viewBox="0 0 122 24" fill="none" xmlns="http://www.w3.org/2000/svg">
<g clip-path="url(#clip0_928_1446)">
<mask id="mask0_928_1446" style="mask-type:luminance" maskUnits="userSpaceOnUse" x="0" y="0" width="122" height="24">
<path d="M121.983 0H0.0170898V24H121.983V0Z" fill="white"/>
</mask>
<g mask="url(#mask0_928_1446)">
<path d="M24.9805 13.0473C25.4446 13.8952 25.6773 14.8503 25.6553 15.8167C25.6714 16.9151 25.3795 17.996 24.8128 18.9371C24.2522 19.858 23.453 20.61 22.4998 21.1136C21.4677 21.6512 20.3166 21.9195 19.1531 21.8937C18.2093 21.903 17.2731 21.724 16.3993 21.3671C15.5521 21.0156 14.7919 20.4831 14.1721 19.8069C13.55 19.1457 13.1082 18.3359 12.8889 17.4549L15.7558 16.4447C15.9912 17.1889 16.4535 17.8408 17.078 18.3091C17.6822 18.7384 18.4082 18.9627 19.1492 18.9488C19.7356 18.9648 20.3173 18.8404 20.846 18.586C21.3146 18.3619 21.7047 18.0017 21.9654 17.5524C22.2378 17.0546 22.3724 16.4931 22.3555 15.9259C22.3711 15.37 22.2363 14.8202 21.9654 14.3345C21.7073 13.8902 21.3213 13.534 20.8577 13.3125C20.3259 13.069 19.7456 12.9503 19.1609 12.9654C18.8375 12.9658 18.5149 12.9971 18.1975 13.059C17.9004 13.117 17.6102 13.2059 17.3316 13.3242L16.5866 11.764L21.2321 6.45148H13.9108V3.6821H24.9181V6.27985L21.2282 10.5704C21.8885 10.6592 22.527 10.8681 23.1122 11.1867C23.8943 11.6232 24.5408 12.267 24.9805 13.0473ZM37.5949 6.29545C38.1454 7.22177 38.4252 8.28394 38.4023 9.36128C38.4048 10.6059 38.1035 11.8323 37.5247 12.9342C37.1167 13.7071 36.6444 14.4443 36.1127 15.138L31.1044 21.6207H27.1804L32.3057 15.0366C32.0684 15.0749 31.8284 15.0945 31.588 15.0951C30.5675 15.1129 29.561 14.8555 28.6743 14.3501C27.8343 13.8624 27.1395 13.1596 26.6617 12.314C26.1663 11.4279 25.9134 10.427 25.9284 9.41198C25.904 8.31721 26.1834 7.2371 26.7358 6.29155C27.2697 5.39466 28.0349 4.65775 28.9513 4.15796C29.9468 3.64418 31.0509 3.37609 32.1712 3.37609C33.2915 3.37609 34.3955 3.64418 35.3911 4.15796C36.302 4.66265 37.0626 5.40031 37.5949 6.29545ZM35.1219 9.36128C35.135 8.80935 35.0004 8.26395 34.7319 7.78156C34.4816 7.34006 34.1163 6.97474 33.6748 6.72451C33.2234 6.46698 32.7123 6.33248 32.1926 6.33446C31.6693 6.33297 31.1545 6.46737 30.6987 6.72451C30.2385 6.97326 29.8573 7.34627 29.5988 7.80106C29.3313 8.28387 29.1967 8.82898 29.2087 9.38078C29.197 9.92636 29.3317 10.4651 29.5988 10.941C29.8553 11.3809 30.2259 11.7435 30.6714 11.9902C31.1297 12.2389 31.6439 12.3665 32.1653 12.3608C32.6872 12.3704 33.2024 12.2426 33.6592 11.9902C34.0959 11.7326 34.4566 11.3638 34.7046 10.9215C34.9828 10.449 35.1271 9.9096 35.1219 9.36128ZM56.9649 8.97122C57.4444 10.1309 57.6858 11.3751 57.6748 12.6299C57.6903 13.8927 57.4487 15.1455 56.9649 16.312C56.4994 17.4159 55.8205 18.4169 54.967 19.2577C54.1136 20.0984 53.1025 20.7622 51.9917 21.2111C49.6156 22.141 46.9763 22.141 44.6002 21.2111C43.49 20.7622 42.4789 20.0996 41.6241 19.2608C40.7692 18.4203 40.0903 17.4179 39.627 16.312C39.1385 15.1493 38.8929 13.8989 38.9054 12.6377C38.8946 11.38 39.1374 10.133 39.6192 8.97122C40.0737 7.86696 40.7493 6.86741 41.6046 6.03412C42.4631 5.19636 43.4766 4.53393 44.5885 4.08385C46.9716 3.15504 49.6165 3.15504 51.9995 4.08385C53.1126 4.53168 54.1265 5.19439 54.9835 6.03412C55.8338 6.87075 56.5075 7.8695 56.9649 8.97122ZM54.3906 12.6377C54.3993 11.7841 54.2444 10.9367 53.9342 10.1414C53.6395 9.39809 53.2023 8.71965 52.647 8.14431C52.0937 7.5773 51.43 7.12991 50.6968 6.82983C49.1487 6.22134 47.4277 6.22134 45.8796 6.82983C45.1459 7.12892 44.4819 7.57644 43.9293 8.14431C43.3727 8.71857 42.9353 9.3973 42.6422 10.1414C42.3292 10.9347 42.1729 11.7811 42.1819 12.6338C42.173 13.4904 42.3293 14.3406 42.6422 15.138C42.9277 15.8795 43.3608 16.5554 43.9153 17.1247C44.4698 17.6939 45.1341 18.1446 45.8679 18.4495C47.412 19.0789 49.141 19.0789 50.6851 18.4495C51.4189 18.1446 52.0832 17.6939 52.6376 17.1247C53.1921 16.5554 53.6253 15.8795 53.9108 15.138C54.2281 14.3426 54.3909 13.4941 54.3906 12.6377ZM58.3886 21.609H61.5676V3.39346H58.3886V21.609ZM72.922 10.4612C73.3844 11.1863 73.6232 12.0314 73.6085 12.8913V21.6207H70.6168V20.2399C70.4487 20.4243 70.2675 20.5964 70.0746 20.7547C69.604 21.1398 69.0656 21.4335 68.4871 21.6207C67.8561 21.8182 67.198 21.9156 66.5368 21.9093C65.7114 21.9287 64.8912 21.7732 64.1302 21.4529C63.4915 21.1789 62.9485 20.7214 62.57 20.1385C62.1931 19.546 62.0003 18.8551 62.0161 18.1531C62.0027 17.4708 62.1724 16.7973 62.5076 16.2028C62.867 15.6079 63.3769 15.1182 63.9859 14.783C64.7806 14.3568 65.6464 14.0792 66.5407 13.9639L70.4179 13.3281V12.903C70.4216 12.6345 70.365 12.3686 70.2522 12.1249C70.1395 11.8812 69.9735 11.6659 69.7665 11.4949C69.2822 11.0977 68.6682 10.8934 68.0424 10.9215C67.4008 10.9115 66.7726 11.1054 66.2482 11.4754C65.7405 11.8309 65.3442 12.3232 65.1053 12.8952L62.531 11.6431C62.7837 10.9554 63.2001 10.3396 63.7441 9.84884C64.3142 9.33399 64.9757 8.93048 65.6943 8.65918C66.4785 8.36506 67.3103 8.21828 68.1478 8.22622C69.1338 8.20521 70.1116 8.40931 71.0069 8.823C71.7864 9.18398 72.4497 9.7554 72.922 10.4729V10.4612ZM70.4296 16.2886V15.7426L67.1531 16.3237C66.6414 16.3844 66.1573 16.5886 65.7567 16.9127C65.6047 17.0555 65.4852 17.2295 65.4064 17.4227C65.3277 17.6158 65.2915 17.8237 65.3004 18.0322C65.2919 18.2405 65.3344 18.4478 65.4241 18.6361C65.5138 18.8244 65.6481 18.9879 65.8152 19.1126C66.1898 19.3836 66.6444 19.5209 67.1063 19.5027C67.7142 19.5156 68.315 19.3704 68.8499 19.0814C69.3448 18.8127 69.7513 18.4062 70.02 17.9113C70.2922 17.4182 70.4333 16.8635 70.4296 16.3003V16.2886ZM88.372 15.06C88.3861 16.271 88.0879 17.4653 87.5061 18.5275C86.9558 19.5414 86.1487 20.3928 85.1658 20.9966C84.1384 21.6052 82.9624 21.9171 81.7684 21.8976C80.8671 21.9081 79.9747 21.7189 79.1551 21.3437C78.5492 21.062 78.0156 20.6458 77.5949 20.1268V21.609H74.607V3.39346H77.786V9.85274C78.1701 9.43094 78.6273 9.08208 79.1356 8.823C79.9663 8.41584 80.8825 8.21387 81.8074 8.23402C82.9865 8.21822 84.1463 8.53452 85.1541 9.14675C86.1428 9.74828 86.9596 10.5947 87.5256 11.6041C88.1081 12.6651 88.3988 13.8616 88.3681 15.0717L88.372 15.06ZM85.0956 15.06C85.1078 14.3556 84.9428 13.6595 84.6158 13.0356C84.3098 12.4614 83.856 11.9794 83.3013 11.6392C82.7222 11.2965 82.059 11.1223 81.3862 11.136C80.7339 11.1247 80.0916 11.2967 79.5323 11.6325C78.9731 11.9684 78.5193 12.4545 78.2228 13.0356C77.9003 13.6609 77.7381 14.3565 77.7509 15.06C77.736 15.7711 77.8982 16.4748 78.2228 17.1077C78.5193 17.6888 78.9731 18.175 79.5323 18.5108C80.0916 18.8466 80.7339 19.0187 81.3862 19.0073C82.059 19.0211 82.7222 18.8468 83.3013 18.5041C83.856 18.164 84.3098 17.6819 84.6158 17.1077C84.9408 16.479 85.1044 15.7793 85.0917 15.0717L85.0956 15.06ZM92.2492 11.1594C92.6159 10.9066 93.0565 10.783 93.5013 10.8084C94.1336 10.802 94.7537 10.9824 95.2838 11.3271C95.8033 11.6617 96.2002 12.1558 96.4149 12.7352L98.8216 11.6041C98.4498 10.5654 97.7377 9.68291 96.8011 9.09994C95.8162 8.49685 94.6793 8.18825 93.5247 8.21062C92.6595 8.19371 91.8009 8.36541 91.0088 8.71379C90.3169 9.02363 89.7232 9.51743 89.2926 10.1414C88.8793 10.7665 88.6658 11.5024 88.6802 12.2516C88.6692 13.1099 88.9731 13.9425 89.5344 14.5919C90.2014 15.3148 91.0694 15.8215 92.0268 16.0468L94.1721 16.6475C94.4427 16.7195 94.7044 16.8216 94.9522 16.9517C95.1618 17.0558 95.3466 17.2034 95.4944 17.3847C95.6364 17.5655 95.7097 17.7908 95.7011 18.0205C95.7046 18.2179 95.6603 18.4132 95.572 18.5897C95.4837 18.7663 95.3541 18.9189 95.1941 19.0346C94.7992 19.3092 94.325 19.4462 93.8445 19.4247C93.1262 19.4315 92.4237 19.2132 91.8357 18.8006C91.2149 18.3633 90.7275 17.7625 90.4276 17.0648L88.0405 18.196C88.4237 19.3273 89.1856 20.2917 90.1975 20.9264C91.2893 21.6089 92.5573 21.956 93.8445 21.9249C94.7377 21.9453 95.625 21.7738 96.4462 21.4217C97.142 21.117 97.7419 20.6289 98.1819 20.0097C98.6003 19.3967 98.8184 18.669 98.806 17.9269C98.83 17.0502 98.5125 16.1985 97.9206 15.5514C97.2358 14.8535 96.3743 14.3547 95.4281 14.1082L93.3335 13.4802C93.0564 13.3981 92.7864 13.2937 92.5261 13.1682C92.3124 13.0709 92.1261 12.9222 91.9839 12.7352C91.8568 12.561 91.7897 12.3502 91.7928 12.1346C91.7857 11.9512 91.8231 11.7688 91.9019 11.603C91.9807 11.4372 92.0985 11.2931 92.2453 11.1828L92.2492 11.1594ZM110.192 4.91857C110.173 4.96654 110.14 5.00779 110.098 5.037C110.055 5.0662 110.005 5.08201 109.954 5.08239C109.925 5.08644 109.896 5.08644 109.868 5.08239H109.841L103.354 22.9156C103.319 23.0106 103.274 23.1021 103.221 23.1887L103.171 23.2667C103.132 23.3252 103.089 23.3798 103.046 23.4344L102.98 23.5046C102.929 23.5568 102.874 23.605 102.816 23.6489L102.757 23.6957C102.68 23.7513 102.598 23.7996 102.511 23.8401L102.457 23.8635C102.386 23.894 102.313 23.9188 102.238 23.9376C102.209 23.9477 102.179 23.9555 102.149 23.961C102.082 23.9752 102.014 23.9856 101.946 23.9922H101.821H101.665H101.564C101.46 23.9735 101.359 23.9475 101.259 23.9142C101.053 23.8414 100.864 23.7284 100.702 23.5818C100.54 23.4351 100.409 23.2578 100.316 23.06C100.223 22.8622 100.17 22.648 100.161 22.4297C100.151 22.2114 100.185 21.9934 100.261 21.7884L104.52 10.0868L106.744 3.97074H106.72C106.689 3.95945 106.66 3.94207 106.636 3.91961C106.612 3.89716 106.592 3.87007 106.578 3.83993C106.564 3.8098 106.557 3.77722 106.556 3.74409C106.555 3.71096 106.56 3.67796 106.572 3.64699C106.589 3.59733 106.621 3.55428 106.663 3.52411C106.706 3.49393 106.758 3.47822 106.81 3.47927C106.838 3.47398 106.867 3.47398 106.896 3.47927L110.043 4.62603C110.075 4.63808 110.104 4.65627 110.128 4.67954C110.152 4.70281 110.172 4.73069 110.185 4.76155C110.199 4.79241 110.206 4.82564 110.206 4.85929C110.207 4.89295 110.2 4.92636 110.188 4.95757L110.192 4.91857ZM109.529 4.81325L107.141 3.94343L107.099 4.06045L104.996 9.83714L108.21 8.43295L109.486 4.92247L109.529 4.81325ZM107.621 2.80448C107.862 2.89065 108.122 2.90359 108.37 2.84164C108.618 2.7797 108.842 2.64566 109.013 2.45648C109.185 2.2673 109.296 2.03148 109.334 1.77885C109.371 1.52623 109.333 1.26814 109.224 1.03725C109.115 0.80636 108.94 0.613034 108.721 0.48173C108.502 0.350425 108.248 0.287042 107.993 0.299598C107.738 0.312155 107.493 0.400087 107.288 0.55227C107.082 0.704454 106.927 0.914051 106.841 1.15455C106.777 1.31608 106.747 1.48884 106.752 1.66243C106.756 1.83602 106.796 2.00685 106.869 2.16464C106.941 2.32243 107.045 2.46392 107.174 2.58058C107.302 2.69724 107.453 2.78667 107.617 2.84348L107.621 2.80448ZM110.921 1.72013C110.761 1.66245 110.588 1.65337 110.424 1.69403C110.259 1.7347 110.11 1.82327 109.996 1.94857C109.881 2.07387 109.807 2.23027 109.781 2.398C109.755 2.56574 109.78 2.73727 109.852 2.89093C109.924 3.0446 110.04 3.17349 110.185 3.26132C110.33 3.34916 110.498 3.39199 110.668 3.3844C110.837 3.37682 111.001 3.31916 111.137 3.21872C111.274 3.11827 111.378 2.97955 111.436 2.82008C111.501 2.61043 111.483 2.38395 111.387 2.18681C111.29 1.98967 111.122 1.83672 110.917 1.75913L110.921 1.72013ZM110.012 1.04143C110.112 1.07847 110.221 1.08493 110.325 1.06C110.429 1.03507 110.523 0.979874 110.595 0.901418C110.667 0.822962 110.715 0.724788 110.731 0.619362C110.747 0.513936 110.732 0.406014 110.687 0.309302C110.642 0.212589 110.569 0.131449 110.478 0.0761854C110.387 0.0209217 110.281 -0.00597252 110.174 -0.00108204C110.068 0.00380845 109.965 0.040263 109.879 0.103652C109.793 0.167042 109.728 0.254506 109.692 0.354939C109.645 0.488425 109.651 0.635408 109.711 0.763951C109.771 0.892493 109.879 0.99221 110.012 1.04143ZM0.0170898 15.1029L10.728 19.7562V16.9868L4.53391 14.2877L10.728 11.5846V8.8152L0.0170898 13.4724V15.1029ZM111.272 8.8152V11.5846L117.466 14.2877L111.272 16.9868V19.7562L121.983 15.1029V13.4724L111.272 8.8152Z" fill="url(#paint0_linear_928_1446)"/>
</g>
</g>
<defs>
<linearGradient id="paint0_linear_928_1446" x1="0.0170898" y1="12.0019" x2="121.983" y2="12.0019" gradientUnits="userSpaceOnUse">
<stop stop-color="#E56D16"/>
<stop offset="0.5" stop-color="#2DD0C7"/>
<stop offset="1" stop-color="#1DB2FE"/>
</linearGradient>
<clipPath id="clip0_928_1446">
<rect width="122" height="24" fill="white"/>
</clipPath>
</defs>
</svg>
