<svg width="88" height="88" viewBox="0 0 88 88" fill="none" xmlns="http://www.w3.org/2000/svg">
<path d="M44 82.5C33.7892 82.5 23.9965 78.4438 16.7764 71.2236C9.55624 64.0035 5.5 54.2108 5.5 44C5.5 33.7892 9.55624 23.9965 16.7764 16.7764C23.9965 9.55624 33.7892 5.5 44 5.5C54.2108 5.5 64.0035 9.55624 71.2236 16.7764C78.4438 23.9965 82.5 33.7892 82.5 44C82.5 54.2108 78.4438 64.0035 71.2236 71.2236C64.0035 78.4438 54.2108 82.5 44 82.5ZM44 88C55.6695 88 66.8611 83.3643 75.1127 75.1127C83.3643 66.8611 88 55.6695 88 44C88 32.3305 83.3643 21.1389 75.1127 12.8873C66.8611 4.6357 55.6695 0 44 0C32.3305 0 21.1389 4.6357 12.8873 12.8873C4.6357 21.1389 0 32.3305 0 44C0 55.6695 4.6357 66.8611 12.8873 75.1127C21.1389 83.3643 32.3305 88 44 88Z" fill="#219653"/>
<path d="M60.3359 27.335C60.2967 27.373 60.26 27.4134 60.2259 27.456L41.1244 51.7935L29.6129 40.2765C28.8309 39.5479 27.7967 39.1512 26.728 39.1701C25.6594 39.1889 24.6397 39.6218 23.884 40.3776C23.1282 41.1334 22.6953 42.153 22.6764 43.2217C22.6576 44.2903 23.0542 45.3246 23.7829 46.1065L38.3359 60.665C38.7279 61.0564 39.1948 61.3647 39.7086 61.5717C40.2224 61.7787 40.7726 61.8801 41.3265 61.8699C41.8803 61.8596 42.4264 61.7379 42.9322 61.512C43.438 61.2861 43.8931 60.9606 44.2704 60.555L66.2264 33.11C66.974 32.3254 67.3828 31.278 67.3643 30.1943C67.3458 29.1107 66.9016 28.0778 66.1277 27.3191C65.3538 26.5603 64.3123 26.1366 63.2285 26.1396C62.1447 26.1426 61.1056 26.572 60.3359 27.335Z" fill="#219653"/>
</svg>
