<svg width="15" height="18" viewBox="0 0 15 18" fill="none" xmlns="http://www.w3.org/2000/svg">
<path d="M4.20001 2.6V12.2C4.20001 12.6243 4.36858 13.0313 4.66864 13.3314C4.9687 13.6314 5.37567 13.8 5.80001 13.8H12.2C12.6244 13.8 13.0313 13.6314 13.3314 13.3314C13.6314 13.0313 13.8 12.6243 13.8 12.2V5.1936C13.8 4.98045 13.7574 4.76945 13.6747 4.573C13.592 4.37654 13.4708 4.19859 13.3184 4.0496L10.6664 1.456C10.3675 1.16373 9.96607 1.00005 9.54801 1H5.80001C5.37567 1 4.9687 1.16857 4.66864 1.46863C4.36858 1.76869 4.20001 2.17565 4.20001 2.6V2.6Z" stroke="#0079E9" stroke-width="1.5" stroke-linecap="round" stroke-linejoin="round"/>
<path d="M10.6 13.8V15.4C10.6 15.8243 10.4314 16.2313 10.1314 16.5314C9.83131 16.8314 9.42435 17 9 17H2.6C2.17565 17 1.76869 16.8314 1.46863 16.5314C1.16857 16.2313 1 15.8243 1 15.4V6.6C1 6.17565 1.16857 5.76869 1.46863 5.46863C1.76869 5.16857 2.17565 5 2.6 5H4.2" stroke="#0079E9" stroke-width="1.5" stroke-linecap="round" stroke-linejoin="round"/>
</svg>
