<svg width="8" height="15" viewBox="0 0 8 15" fill="none" xmlns="http://www.w3.org/2000/svg">
<path d="M6.67262 14.0013C6.50185 14.0018 6.33312 13.9688 6.17883 13.9048C6.02454 13.8407 5.88861 13.7473 5.78103 13.6313L0.260033 7.63125C0.0919094 7.45232 0 7.22788 0 6.99625C0 6.76463 0.0919094 6.54018 0.260033 6.36125L5.97535 0.361252C6.16937 0.157036 6.44818 0.0286112 6.75043 0.0042315C7.05269 -0.0201482 7.35363 0.0615137 7.58707 0.231252C7.8205 0.400991 7.9673 0.644902 7.99516 0.909329C8.02303 1.17375 7.92969 1.43704 7.73566 1.64125L2.62617 7.00125L7.5642 12.3613C7.70398 12.508 7.79277 12.6868 7.82007 12.8763C7.84736 13.0659 7.81202 13.2583 7.71823 13.4308C7.62443 13.6034 7.47611 13.7488 7.29081 13.8499C7.1055 13.9509 6.89098 14.0035 6.67262 14.0013Z" fill="#0079E9"/>
</svg>
