<svg width="94" height="88" viewBox="0 0 94 88" fill="none" xmlns="http://www.w3.org/2000/svg">
<path d="M47.035 55.8782H47.035C46.435 55.8783 45.8411 55.759 45.2877 55.5273C44.7343 55.2957 44.2325 54.9562 43.8116 54.5288C43.3906 54.1014 43.0589 53.5944 42.8357 53.0376C42.6125 52.4807 42.5023 51.885 42.5115 51.2851L42.5116 51.2851V51.2813V29.25C42.5116 28.0503 42.9881 26.8998 43.8364 26.0514C44.6847 25.2031 45.8353 24.7266 47.035 24.7266C48.2347 24.7266 49.3852 25.2031 50.2336 26.0514C51.0819 26.8998 51.5584 28.0503 51.5584 29.25V51.3547C51.5584 52.5544 51.0819 53.705 50.2336 54.5533C49.3852 55.4016 48.2347 55.8782 47.035 55.8782Z" fill="#E60000" stroke="white" stroke-width="0.5"/>
<path d="M52.1077 66.9605C52.1077 69.8643 49.7537 72.2183 46.8499 72.2183C43.946 72.2183 41.592 69.8643 41.592 66.9605C41.592 64.0566 43.946 61.7026 46.8499 61.7026C49.7537 61.7026 52.1077 64.0566 52.1077 66.9605Z" fill="#E60000" stroke="white" stroke-width="0.5"/>
<path d="M11.0864 87.9998H82.6147C84.5242 88.0015 86.4014 87.5069 88.0621 86.5643C89.7228 85.6217 91.11 84.2637 92.0875 82.6233C93.065 80.983 93.5994 79.1167 93.6381 77.2076C93.6768 75.2984 93.2186 73.412 92.3084 71.7333L11.0864 87.9998ZM11.0864 87.9998C9.16109 88.0121 7.26616 87.5197 5.59049 86.5714M11.0864 87.9998L5.59049 86.5714M86.2026 79.0016C85.8333 79.6244 85.3084 80.1404 84.6793 80.4988C84.0502 80.8572 83.3387 81.0457 82.6147 81.0458H11.0878H11.0864V80.5458C10.4481 80.5476 9.82046 80.3829 9.26524 80.0681C8.71002 79.7533 8.24645 79.2992 7.92025 78.7506C7.59405 78.202 7.41649 77.5778 7.40507 76.9397C7.39366 76.3015 7.54878 75.6714 7.85515 75.1115L86.2026 79.0016ZM86.2026 79.0016C86.5733 78.38 86.776 77.6726 86.7906 76.9489C86.8052 76.2248 86.6311 75.5093 86.2853 74.8729C86.2853 74.8728 86.2853 74.8728 86.2852 74.8727L50.5218 9.00043L85.7725 78.7466L86.2018 79.0029C86.202 79.0025 86.2023 79.0021 86.2026 79.0016ZM0.000943225 77.1285C-0.024249 75.2033 0.455593 73.3051 1.39264 71.6232L0.000943225 77.1285ZM0.000943225 77.1285C0.0261354 79.0537 0.555481 80.9386 1.53622 82.5955M0.000943225 77.1285L1.53622 82.5955M1.53622 82.5955C2.51695 84.2523 3.91482 85.6232 5.59049 86.5714M1.53622 82.5955L5.59049 86.5714M1.82945 71.8665L1.83195 71.8619L37.6326 5.98865C38.5365 4.32792 39.8715 2.94162 41.4969 1.97571C43.1223 1.00979 44.9781 0.5 46.8689 0.5C48.7597 0.5 50.6155 1.00979 52.2409 1.97571C53.8663 2.94162 55.2012 4.32792 56.1051 5.98865L91.8084 71.7502V71.8602L91.8689 71.9717C92.7378 73.5741 93.1752 75.3749 93.1382 77.1974C93.1012 79.0199 92.5912 80.8015 91.658 82.3674C90.7248 83.9333 89.4006 85.2297 87.8153 86.1295C86.23 87.0292 84.438 87.5014 82.6151 87.4998H82.6147L11.0864 87.4998L11.0832 87.4998C9.24527 87.5116 7.43635 87.0415 5.83674 86.1363C4.23713 85.2311 2.90271 83.9224 1.96649 82.3408C1.03027 80.7592 0.524949 78.9598 0.5009 77.1219C0.476852 75.2841 0.934914 73.4721 1.82945 71.8665ZM7.41652 74.8715C7.41635 74.8718 7.41618 74.8721 7.41601 74.8724L50.0818 9.23792C49.7672 8.655 49.3007 8.16805 48.7319 7.82866C48.163 7.48927 47.5129 7.31008 46.8505 7.31008C46.1881 7.31008 45.5381 7.48927 44.9692 7.82866C44.4003 8.16805 43.9339 8.655 43.6193 9.23792L43.1799 8.99935L43.1798 8.99944C43.1796 8.99977 43.1795 9.0001 43.1793 9.00043L7.41652 74.8715Z" fill="#E60000" stroke="white"/>
</svg>
