<svg width="200" height="200" viewBox="0 0 200 200" fill="none" xmlns="http://www.w3.org/2000/svg">
<path d="M9.52381 0H0V9.52381H9.52381V0Z" fill="#333333"/>
<path d="M19.0476 0H9.52381V9.52381H19.0476V0Z" fill="#333333"/>
<path d="M28.5714 0H19.0476V9.52381H28.5714V0Z" fill="#333333"/>
<path d="M38.0952 0H28.5714V9.52381H38.0952V0Z" fill="#333333"/>
<path d="M47.619 0H38.0952V9.52381H47.619V0Z" fill="#333333"/>
<path d="M57.1429 0H47.619V9.52381H57.1429V0Z" fill="#333333"/>
<path d="M66.6667 0H57.1429V9.52381H66.6667V0Z" fill="#333333"/>
<path d="M85.7143 0H76.1905V9.52381H85.7143V0Z" fill="#333333"/>
<path d="M95.2381 0H85.7143V9.52381H95.2381V0Z" fill="#333333"/>
<path d="M104.762 0H95.2381V9.52381H104.762V0Z" fill="#333333"/>
<path d="M114.286 0H104.762V9.52381H114.286V0Z" fill="#333333"/>
<path d="M142.857 0H133.333V9.52381H142.857V0Z" fill="#333333"/>
<path d="M152.381 0H142.857V9.52381H152.381V0Z" fill="#333333"/>
<path d="M161.905 0H152.381V9.52381H161.905V0Z" fill="#333333"/>
<path d="M171.429 0H161.905V9.52381H171.429V0Z" fill="#333333"/>
<path d="M180.952 0H171.429V9.52381H180.952V0Z" fill="#333333"/>
<path d="M190.476 0H180.952V9.52381H190.476V0Z" fill="#333333"/>
<path d="M200 0H190.476V9.52381H200V0Z" fill="#333333"/>
<path d="M9.52381 9.52381H0V19.0476H9.52381V9.52381Z" fill="#333333"/>
<path d="M66.6667 9.52381H57.1429V19.0476H66.6667V9.52381Z" fill="#333333"/>
<path d="M104.762 9.52381H95.2381L95.2381 19.0476H104.762V9.52381Z" fill="#333333"/>
<path d="M142.857 9.52381H133.333V19.0476H142.857V9.52381Z" fill="#333333"/>
<path d="M200 9.52381H190.476V19.0476H200V9.52381Z" fill="#333333"/>
<path d="M9.52381 19.0476H0V28.5714H9.52381V19.0476Z" fill="#333333"/>
<path d="M28.5714 19.0476H19.0476V28.5714H28.5714V19.0476Z" fill="#333333"/>
<path d="M38.0952 19.0476H28.5714V28.5714H38.0952V19.0476Z" fill="#333333"/>
<path d="M47.619 19.0476H38.0952V28.5714H47.619V19.0476Z" fill="#333333"/>
<path d="M66.6667 19.0476H57.1429V28.5714H66.6667V19.0476Z" fill="#333333"/>
<path d="M85.7143 19.0476H76.1905V28.5714H85.7143V19.0476Z" fill="#333333"/>
<path d="M142.857 19.0476H133.333V28.5714H142.857V19.0476Z" fill="#333333"/>
<path d="M161.905 19.0476H152.381V28.5714H161.905V19.0476Z" fill="#333333"/>
<path d="M171.429 19.0476H161.905V28.5714H171.429V19.0476Z" fill="#333333"/>
<path d="M180.952 19.0476H171.429V28.5714H180.952V19.0476Z" fill="#333333"/>
<path d="M200 19.0476H190.476V28.5714H200V19.0476Z" fill="#333333"/>
<path d="M9.52381 28.5714H0V38.0952H9.52381V28.5714Z" fill="#333333"/>
<path d="M28.5714 28.5714H19.0476V38.0952H28.5714V28.5714Z" fill="#333333"/>
<path d="M38.0952 28.5714H28.5714V38.0952H38.0952V28.5714Z" fill="#333333"/>
<path d="M47.619 28.5714H38.0952V38.0952H47.619V28.5714Z" fill="#333333"/>
<path d="M66.6667 28.5714H57.1429V38.0952H66.6667V28.5714Z" fill="#333333"/>
<path d="M95.2381 28.5714H85.7143L85.7143 38.0952H95.2381V28.5714Z" fill="#333333"/>
<path d="M114.286 28.5714H104.762V38.0952H114.286V28.5714Z" fill="#333333"/>
<path d="M123.81 28.5714H114.286V38.0952H123.81V28.5714Z" fill="#333333"/>
<path d="M142.857 28.5714H133.333V38.0952H142.857V28.5714Z" fill="#333333"/>
<path d="M161.905 28.5714H152.381V38.0952H161.905V28.5714Z" fill="#333333"/>
<path d="M171.429 28.5714H161.905V38.0952H171.429V28.5714Z" fill="#333333"/>
<path d="M180.952 28.5714H171.429V38.0952H180.952V28.5714Z" fill="#333333"/>
<path d="M200 28.5714H190.476V38.0952H200V28.5714Z" fill="#333333"/>
<path d="M9.52381 38.0952H0V47.619H9.52381V38.0952Z" fill="#333333"/>
<path d="M28.5714 38.0952H19.0476V47.619H28.5714V38.0952Z" fill="#333333"/>
<path d="M38.0952 38.0952H28.5714V47.619H38.0952V38.0952Z" fill="#333333"/>
<path d="M47.619 38.0952H38.0952V47.619H47.619V38.0952Z" fill="#333333"/>
<path d="M66.6667 38.0952H57.1429V47.619H66.6667V38.0952Z" fill="#333333"/>
<path d="M85.7143 38.0952H76.1905V47.619H85.7143L85.7143 38.0952Z" fill="#333333"/>
<path d="M95.2381 38.0952H85.7143L85.7143 47.619H95.2381V38.0952Z" fill="#333333"/>
<path d="M114.286 38.0952H104.762V47.619H114.286V38.0952Z" fill="#333333"/>
<path d="M123.81 38.0952H114.286V47.619H123.81V38.0952Z" fill="#333333"/>
<path d="M142.857 38.0952H133.333V47.619H142.857V38.0952Z" fill="#333333"/>
<path d="M161.905 38.0952H152.381V47.619H161.905V38.0952Z" fill="#333333"/>
<path d="M171.429 38.0952H161.905V47.619H171.429V38.0952Z" fill="#333333"/>
<path d="M180.952 38.0952H171.429V47.619H180.952V38.0952Z" fill="#333333"/>
<path d="M200 38.0952H190.476V47.619H200V38.0952Z" fill="#333333"/>
<path d="M9.52381 47.619H0V57.1429H9.52381V47.619Z" fill="#333333"/>
<path d="M66.6667 47.619H57.1429V57.1429H66.6667V47.619Z" fill="#333333"/>
<path d="M104.762 47.619H95.2381L95.2381 57.1429H104.762L104.762 47.619Z" fill="#333333"/>
<path d="M123.81 47.619H114.286V57.1429H123.81V47.619Z" fill="#333333"/>
<path d="M142.857 47.619H133.333V57.1429H142.857V47.619Z" fill="#333333"/>
<path d="M200 47.619H190.476V57.1429H200V47.619Z" fill="#333333"/>
<path d="M9.52381 57.1429H0V66.6667H9.52381V57.1429Z" fill="#333333"/>
<path d="M19.0476 57.1429H9.52381V66.6667H19.0476V57.1429Z" fill="#333333"/>
<path d="M28.5714 57.1429H19.0476V66.6667H28.5714V57.1429Z" fill="#333333"/>
<path d="M38.0952 57.1429H28.5714V66.6667H38.0952V57.1429Z" fill="#333333"/>
<path d="M47.619 57.1429H38.0952V66.6667H47.619V57.1429Z" fill="#333333"/>
<path d="M57.1429 57.1429H47.619V66.6667H57.1429V57.1429Z" fill="#333333"/>
<path d="M66.6667 57.1429H57.1429V66.6667H66.6667V57.1429Z" fill="#333333"/>
<path d="M85.7143 57.1429H76.1905V66.6667H85.7143V57.1429Z" fill="#333333"/>
<path d="M104.762 57.1429H95.2381V66.6667H104.762V57.1429Z" fill="#333333"/>
<path d="M123.81 57.1429H114.286V66.6667H123.81V57.1429Z" fill="#333333"/>
<path d="M142.857 57.1429H133.333V66.6667H142.857V57.1429Z" fill="#333333"/>
<path d="M152.381 57.1429H142.857V66.6667H152.381V57.1429Z" fill="#333333"/>
<path d="M161.905 57.1429H152.381V66.6667H161.905V57.1429Z" fill="#333333"/>
<path d="M171.429 57.1429H161.905V66.6667H171.429V57.1429Z" fill="#333333"/>
<path d="M180.952 57.1429H171.429V66.6667H180.952V57.1429Z" fill="#333333"/>
<path d="M190.476 57.1429H180.952V66.6667H190.476V57.1429Z" fill="#333333"/>
<path d="M200 57.1429H190.476V66.6667H200V57.1429Z" fill="#333333"/>
<path d="M114.286 66.6667H104.762L104.762 76.1905H114.286V66.6667Z" fill="#333333"/>
<path d="M123.81 66.6667H114.286V76.1905H123.81V66.6667Z" fill="#333333"/>
<path d="M19.0476 76.1905H9.52381V85.7143H19.0476V76.1905Z" fill="#333333"/>
<path d="M47.619 76.1905H38.0952V85.7143H47.619V76.1905Z" fill="#333333"/>
<path d="M66.6667 76.1905H57.1429V85.7143H66.6667V76.1905Z" fill="#333333"/>
<path d="M114.286 76.1905H104.762V85.7143H114.286V76.1905Z" fill="#333333"/>
<path d="M133.333 76.1905H123.81V85.7143H133.333V76.1905Z" fill="#333333"/>
<path d="M161.905 76.1905H152.381V85.7143H161.905V76.1905Z" fill="#333333"/>
<path d="M180.952 76.1905H171.429V85.7143H180.952V76.1905Z" fill="#333333"/>
<path d="M200 76.1905H190.476V85.7143H200V76.1905Z" fill="#333333"/>
<path d="M9.52381 85.7143L0 85.7143V95.2381H9.52381V85.7143Z" fill="#333333"/>
<path d="M19.0476 85.7143H9.52381V95.2381H19.0476V85.7143Z" fill="#333333"/>
<path d="M28.5714 85.7143L19.0476 85.7143V95.2381H28.5714V85.7143Z" fill="#333333"/>
<path d="M57.1429 85.7143H47.619V95.2381H57.1429V85.7143Z" fill="#333333"/>
<path d="M123.81 85.7143H114.286V95.2381H123.81V85.7143Z" fill="#333333"/>
<path d="M133.333 85.7143H123.81V95.2381H133.333V85.7143Z" fill="#333333"/>
<path d="M142.857 85.7143L133.333 85.7143V95.2381H142.857V85.7143Z" fill="#333333"/>
<path d="M180.952 85.7143H171.429V95.2381H180.952V85.7143Z" fill="#333333"/>
<path d="M19.0476 95.2381H9.52381V104.762H19.0476V95.2381Z" fill="#333333"/>
<path d="M38.0952 95.2381L28.5714 95.2381V104.762H38.0952V95.2381Z" fill="#333333"/>
<path d="M66.6667 95.2381L57.1429 95.2381V104.762H66.6667V95.2381Z" fill="#333333"/>
<path d="M76.1905 95.2381H66.6667V104.762H76.1905V95.2381Z" fill="#333333"/>
<path d="M95.2381 95.2381H85.7143V104.762H95.2381V95.2381Z" fill="#333333"/>
<path d="M104.762 95.2381H95.2381V104.762H104.762V95.2381Z" fill="#333333"/>
<path d="M114.286 95.2381L104.762 95.2381V104.762H114.286V95.2381Z" fill="#333333"/>
<path d="M152.381 95.2381L142.857 95.2381V104.762H152.381V95.2381Z" fill="#333333"/>
<path d="M161.905 95.2381H152.381V104.762H161.905V95.2381Z" fill="#333333"/>
<path d="M171.429 95.2381L161.905 95.2381V104.762H171.429V95.2381Z" fill="#333333"/>
<path d="M180.952 95.2381H171.429V104.762H180.952V95.2381Z" fill="#333333"/>
<path d="M190.476 95.2381L180.952 95.2381V104.762H190.476V95.2381Z" fill="#333333"/>
<path d="M200 95.2381H190.476V104.762H200V95.2381Z" fill="#333333"/>
<path d="M9.52381 104.762L0 104.762V114.286H9.52381V104.762Z" fill="#333333"/>
<path d="M38.0952 104.762H28.5714V114.286H38.0952V104.762Z" fill="#333333"/>
<path d="M76.1905 104.762H66.6667V114.286H76.1905V104.762Z" fill="#333333"/>
<path d="M85.7143 104.762H76.1905V114.286H85.7143L85.7143 104.762Z" fill="#333333"/>
<path d="M133.333 104.762H123.81V114.286H133.333V104.762Z" fill="#333333"/>
<path d="M142.857 104.762L133.333 104.762V114.286H142.857V104.762Z" fill="#333333"/>
<path d="M152.381 104.762H142.857V114.286H152.381V104.762Z" fill="#333333"/>
<path d="M161.905 104.762H152.381V114.286H161.905V104.762Z" fill="#333333"/>
<path d="M19.0476 114.286H9.52381V123.81H19.0476V114.286Z" fill="#333333"/>
<path d="M38.0952 114.286H28.5714V123.81H38.0952V114.286Z" fill="#333333"/>
<path d="M47.619 114.286H38.0952V123.81H47.619V114.286Z" fill="#333333"/>
<path d="M57.1429 114.286H47.619V123.81H57.1429V114.286Z" fill="#333333"/>
<path d="M66.6667 114.286H57.1429V123.81H66.6667V114.286Z" fill="#333333"/>
<path d="M76.1905 114.286H66.6667V123.81H76.1905V114.286Z" fill="#333333"/>
<path d="M104.762 114.286H95.2381V123.81H104.762V114.286Z" fill="#333333"/>
<path d="M123.81 114.286H114.286V123.81H123.81V114.286Z" fill="#333333"/>
<path d="M152.381 114.286H142.857V123.81H152.381V114.286Z" fill="#333333"/>
<path d="M180.952 114.286H171.429V123.81H180.952V114.286Z" fill="#333333"/>
<path d="M200 114.286H190.476V123.81H200V114.286Z" fill="#333333"/>
<path d="M133.333 123.81H123.81V133.333H133.333V123.81Z" fill="#333333"/>
<path d="M142.857 123.81H133.333V133.333H142.857V123.81Z" fill="#333333"/>
<path d="M152.381 123.81H142.857V133.333H152.381V123.81Z" fill="#333333"/>
<path d="M161.905 123.81H152.381V133.333H161.905V123.81Z" fill="#333333"/>
<path d="M9.52381 133.333H0V142.857H9.52381V133.333Z" fill="#333333"/>
<path d="M19.0476 133.333H9.52381V142.857H19.0476V133.333Z" fill="#333333"/>
<path d="M28.5714 133.333H19.0476V142.857H28.5714V133.333Z" fill="#333333"/>
<path d="M38.0952 133.333H28.5714V142.857H38.0952V133.333Z" fill="#333333"/>
<path d="M47.619 133.333H38.0952V142.857H47.619V133.333Z" fill="#333333"/>
<path d="M57.1429 133.333H47.619V142.857H57.1429V133.333Z" fill="#333333"/>
<path d="M66.6667 133.333H57.1429V142.857H66.6667V133.333Z" fill="#333333"/>
<path d="M95.2381 133.333H85.7143V142.857H95.2381V133.333Z" fill="#333333"/>
<path d="M114.286 133.333H104.762V142.857H114.286V133.333Z" fill="#333333"/>
<path d="M123.81 133.333H114.286V142.857H123.81V133.333Z" fill="#333333"/>
<path d="M142.857 133.333H133.333V142.857H142.857V133.333Z" fill="#333333"/>
<path d="M161.905 133.333H152.381V142.857H161.905V133.333Z" fill="#333333"/>
<path d="M171.429 133.333H161.905V142.857H171.429V133.333Z" fill="#333333"/>
<path d="M190.476 133.333H180.952V142.857H190.476V133.333Z" fill="#333333"/>
<path d="M200 133.333H190.476V142.857H200V133.333Z" fill="#333333"/>
<path d="M9.52381 142.857H0V152.381H9.52381V142.857Z" fill="#333333"/>
<path d="M66.6667 142.857H57.1429V152.381H66.6667V142.857Z" fill="#333333"/>
<path d="M133.333 142.857H123.81V152.381H133.333V142.857Z" fill="#333333"/>
<path d="M142.857 142.857H133.333V152.381H142.857V142.857Z" fill="#333333"/>
<path d="M152.381 142.857H142.857V152.381H152.381V142.857Z" fill="#333333"/>
<path d="M161.905 142.857H152.381V152.381H161.905V142.857Z" fill="#333333"/>
<path d="M171.429 142.857H161.905V152.381H171.429V142.857Z" fill="#333333"/>
<path d="M190.476 142.857H180.952V152.381H190.476V142.857Z" fill="#333333"/>
<path d="M200 142.857H190.476V152.381H200V142.857Z" fill="#333333"/>
<path d="M9.52381 152.381H0V161.905H9.52381V152.381Z" fill="#333333"/>
<path d="M28.5714 152.381H19.0476V161.905H28.5714V152.381Z" fill="#333333"/>
<path d="M38.0952 152.381H28.5714V161.905H38.0952V152.381Z" fill="#333333"/>
<path d="M47.619 152.381H38.0952V161.905H47.619V152.381Z" fill="#333333"/>
<path d="M66.6667 152.381H57.1429V161.905H66.6667V152.381Z" fill="#333333"/>
<path d="M85.7143 152.381H76.1905V161.905H85.7143V152.381Z" fill="#333333"/>
<path d="M104.762 152.381H95.2381V161.905H104.762V152.381Z" fill="#333333"/>
<path d="M123.81 152.381H114.286V161.905H123.81V152.381Z" fill="#333333"/>
<path d="M152.381 152.381H142.857V161.905H152.381V152.381Z" fill="#333333"/>
<path d="M180.952 152.381H171.429V161.905H180.952V152.381Z" fill="#333333"/>
<path d="M190.476 152.381H180.952V161.905H190.476V152.381Z" fill="#333333"/>
<path d="M200 152.381H190.476V161.905H200V152.381Z" fill="#333333"/>
<path d="M9.52381 161.905H0V171.429H9.52381V161.905Z" fill="#333333"/>
<path d="M28.5714 161.905H19.0476V171.429H28.5714V161.905Z" fill="#333333"/>
<path d="M38.0952 161.905H28.5714V171.429H38.0952V161.905Z" fill="#333333"/>
<path d="M47.619 161.905H38.0952V171.429H47.619V161.905Z" fill="#333333"/>
<path d="M66.6667 161.905H57.1429V171.429H66.6667V161.905Z" fill="#333333"/>
<path d="M95.2381 161.905H85.7143L85.7143 171.429H95.2381L95.2381 161.905Z" fill="#333333"/>
<path d="M114.286 161.905H104.762L104.762 171.429H114.286V161.905Z" fill="#333333"/>
<path d="M123.81 161.905H114.286V171.429H123.81V161.905Z" fill="#333333"/>
<path d="M161.905 161.905H152.381V171.429H161.905V161.905Z" fill="#333333"/>
<path d="M171.429 161.905H161.905V171.429H171.429V161.905Z" fill="#333333"/>
<path d="M180.952 161.905H171.429V171.429H180.952V161.905Z" fill="#333333"/>
<path d="M200 161.905H190.476V171.429H200V161.905Z" fill="#333333"/>
<path d="M9.52381 171.429H0V180.952H9.52381V171.429Z" fill="#333333"/>
<path d="M28.5714 171.429H19.0476V180.952H28.5714V171.429Z" fill="#333333"/>
<path d="M38.0952 171.429H28.5714V180.952H38.0952V171.429Z" fill="#333333"/>
<path d="M47.619 171.429H38.0952V180.952H47.619V171.429Z" fill="#333333"/>
<path d="M66.6667 171.429H57.1429V180.952H66.6667V171.429Z" fill="#333333"/>
<path d="M142.857 171.429H133.333V180.952H142.857V171.429Z" fill="#333333"/>
<path d="M161.905 171.429H152.381V180.952H161.905V171.429Z" fill="#333333"/>
<path d="M200 171.429H190.476V180.952H200V171.429Z" fill="#333333"/>
<path d="M9.52381 180.952H0V190.476H9.52381V180.952Z" fill="#333333"/>
<path d="M66.6667 180.952H57.1429V190.476H66.6667V180.952Z" fill="#333333"/>
<path d="M85.7143 180.952H76.1905V190.476H85.7143V180.952Z" fill="#333333"/>
<path d="M104.762 180.952H95.2381V190.476H104.762V180.952Z" fill="#333333"/>
<path d="M142.857 180.952H133.333V190.476H142.857V180.952Z" fill="#333333"/>
<path d="M161.905 180.952H152.381V190.476H161.905V180.952Z" fill="#333333"/>
<path d="M171.429 180.952H161.905V190.476H171.429V180.952Z" fill="#333333"/>
<path d="M190.476 180.952H180.952V190.476H190.476V180.952Z" fill="#333333"/>
<path d="M200 180.952H190.476V190.476H200V180.952Z" fill="#333333"/>
<path d="M9.52381 190.476H0V200H9.52381V190.476Z" fill="#333333"/>
<path d="M19.0476 190.476H9.52381V200H19.0476V190.476Z" fill="#333333"/>
<path d="M28.5714 190.476H19.0476V200H28.5714V190.476Z" fill="#333333"/>
<path d="M38.0952 190.476H28.5714V200H38.0952V190.476Z" fill="#333333"/>
<path d="M47.619 190.476H38.0952V200H47.619V190.476Z" fill="#333333"/>
<path d="M57.1429 190.476H47.619V200H57.1429V190.476Z" fill="#333333"/>
<path d="M66.6667 190.476H57.1429V200H66.6667V190.476Z" fill="#333333"/>
<path d="M104.762 190.476H95.2381V200H104.762V190.476Z" fill="#333333"/>
<path d="M123.81 190.476H114.286V200H123.81V190.476Z" fill="#333333"/>
<path d="M142.857 190.476H133.333V200H142.857V190.476Z" fill="#333333"/>
<path d="M161.905 190.476H152.381V200H161.905V190.476Z" fill="#333333"/>
<path d="M180.952 190.476H171.429V200H180.952V190.476Z" fill="#333333"/>
<path d="M200 190.476H190.476V200H200V190.476Z" fill="#333333"/>
</svg>
